# xmcd
#
# Track frame offsets: 
#        225
#        17421
#        34785
#        60091
#        85686
#        98378
#        135906
#        159287
#        178088
#        200284
#        214334
#        241106
#        275082
#        286775
#        298770
#        315571
#
# Disc length: 4436 seconds
#
# Revision: 5
# Processed by: cddbd v1.5.2PL0 Copyright (c) Steve Scherf et al.
# Submitted via: ExactAudioCopy v1.0b3
#
DISCID=cb115110
DTITLE=Kult - Tata 2
DYEAR=1996
DGENRE=Rock
TTITLE0=Jesli zechcesz odejsc - odejdz
TTITLE1=Kochaj mnie a bede twoja
TTITLE2=Smierc poety
TTITLE3=Nie doroslem do swych lat
TTITLE4=Ty albo zadna
TTITLE5=Samotni ludzie
TTITLE6=Zastanowcie sie sami
TTITLE7=Gwiazda szeryfa
TTITLE8=Ballada o dwoch siostrach
TTITLE9=Kolysanka stalinowska
TTITLE10=Latajacy Holender
TTITLE11=A gdy bede umieral
TTITLE12=Prowokator
TTITLE13=Dolina
TTITLE14=Marianna (inaczej niz na 1)
TTITLE15=Kochaj mnie a bede twoja (wersja bez V.V.)
EXTD=YEAR: 1996
EXTT0=
EXTT1=
EXTT2=
EXTT3=
EXTT4=
EXTT5=
EXTT6=
EXTT7=
EXTT8=
EXTT9=
EXTT10=
EXTT11=
EXTT12=
EXTT13=
EXTT14=
EXTT15=
PLAYORDER=
